<?xml version="1.0" standalone="no"?>
<!DOCTYPE svg PUBLIC "-//W3C//DTD SVG 20010904//EN"
 "http://www.w3.org/TR/2001/REC-SVG-20010904/DTD/svg10.dtd">
<svg version="1.0" xmlns="http://www.w3.org/2000/svg"
 width="2000.000000pt" height="1368.000000pt" viewBox="0 0 2000.000000 1368.000000"
 preserveAspectRatio="xMidYMid meet">

<g transform="translate(0.000000,1368.000000) scale(0.100000,-0.100000)"
fill="#000000" stroke="none">
<path d="M11933 10645 c-75 -21 -195 -83 -187 -97 4 -7 3 -8 -5 -4 -13 9 -253
-125 -491 -274 -199 -125 -236 -150 -232 -162 1 -5 -2 -7 -7 -3 -14 8 -62 -25
-54 -38 3 -6 1 -7 -6 -3 -12 8 -191 -113 -366 -249 -60 -47 -135 -104 -165
-127 -51 -40 -58 -43 -110 -40 -148 8 -401 -112 -481 -227 -17 -24 -23 -47
-22 -76 1 -42 1 -42 -66 -78 l-67 -36 -51 36 c-59 41 -127 53 -188 33 -21 -7
-71 -43 -113 -82 -41 -38 -99 -81 -128 -95 -30 -14 -67 -40 -84 -59 -29 -33
-60 -116 -60 -161 0 -13 -5 -23 -11 -23 -5 0 -8 -4 -4 -9 3 -5 0 -13 -6 -17
-8 -4 -9 -3 -5 4 9 15 1 15 -25 1 -11 -5 -16 -15 -13 -21 4 -7 3 -8 -4 -4 -6
4 -35 -5 -63 -20 l-52 -26 -42 21 c-23 12 -53 21 -66 21 -94 -1 -292 -85 -361
-154 -32 -33 -94 -127 -127 -196 -4 -8 -45 -35 -90 -59 l-83 -43 -45 43 -44
44 -92 0 c-136 -1 -184 -20 -275 -112 l-74 -74 4 -57 c3 -31 8 -64 12 -72 5
-12 -6 -22 -39 -38 -60 -29 -71 -28 -90 8 -25 48 -57 64 -116 56 -88 -12 -125
-33 -190 -109 -63 -72 -64 -77 -47 -146 1 -8 -8 -20 -21 -27 -20 -10 -31 -10
-60 2 -20 9 -83 28 -140 45 -294 83 -453 -12 -493 -292 -10 -73 -13 -79 -40
-88 -19 -7 -27 -15 -22 -22 4 -8 3 -9 -5 -5 -15 10 -122 -34 -114 -47 4 -6 1
-7 -6 -3 -13 9 -73 -12 -67 -23 2 -3 -6 -7 -17 -7 -12 -1 -64 -17 -115 -35
l-92 -33 -38 37 c-61 60 -86 62 -213 21 -71 -23 -107 -39 -103 -46 4 -7 3 -8
-4 -4 -16 10 -63 -4 -55 -17 3 -6 1 -7 -5 -3 -6 4 -193 -54 -414 -129 -1203
-406 -1851 -598 -2107 -625 -165 -18 -277 -62 -336 -132 -20 -24 -59 -45 -154
-83 -138 -56 -243 -113 -309 -170 -39 -34 -58 -66 -30 -49 8 4 10 3 5 -2 -5
-5 -13 -9 -19 -9 -15 0 -89 -127 -83 -143 2 -7 1 -11 -4 -8 -4 3 -31 -43 -59
-102 -140 -293 -212 -536 -215 -727 l-2 -100 140 -32 c478 -110 1334 -286
1837 -377 748 -136 1246 -208 1669 -241 243 -19 1153 -35 2020 -35 l646 0 67
131 c211 415 506 787 837 1053 210 169 514 346 689 400 206 65 460 89 925 88
308 -1 565 -9 1530 -52 127 -6 507 -13 845 -17 1402 -13 2150 56 2885 268 234
68 516 167 654 230 24 11 64 29 90 39 25 10 98 43 161 73 107 50 122 55 220
63 58 5 138 8 178 7 106 -2 189 -44 312 -157 52 -48 96 -91 98 -95 5 -15 -175
-157 -288 -228 -623 -388 -1741 -647 -3355 -777 -375 -31 -723 -51 -1495 -86
-342 -16 -549 -30 -615 -41 -143 -25 -259 -70 -375 -147 -152 -101 -266 -237
-355 -425 -43 -89 -105 -264 -105 -293 0 -11 26 -14 138 -14 196 0 2572 28
2972 35 184 3 601 10 925 15 1284 21 2315 49 2638 71 185 12 272 34 447 111
182 80 238 98 307 98 l62 0 7 58 c19 151 2 338 -56 612 -36 166 -36 164 -14
156 85 -33 173 -30 199 7 45 65 -10 281 -116 454 l-20 32 35 154 c20 85 41
199 47 253 15 127 6 752 -15 1024 -9 107 -15 315 -16 462 0 376 -26 549 -105
713 -46 94 -85 138 -152 171 -46 23 -68 28 -132 27 -42 0 -96 -6 -121 -13 -80
-21 -213 -82 -306 -140 -172 -108 -273 -201 -479 -442 -105 -123 -142 -153
-392 -319 -254 -170 -481 -287 -625 -322 -235 -58 -695 -44 -1113 34 -389 72
-758 201 -915 318 -89 67 -207 189 -295 306 -90 120 -117 161 -243 370 -174
288 -283 425 -372 470 -106 54 -298 80 -485 65 l-110 -8 -50 49 c-71 68 -159
119 -208 119 -36 0 -39 2 -32 23 4 12 10 57 12 99 4 62 0 94 -21 170 -37 135
-44 186 -61 437 -26 387 -36 438 -97 484 -84 64 -193 88 -285 62z"/>
</g>
</svg>
